<?xml version="1.0" encoding="UTF-8"?> <svg xmlns="http://www.w3.org/2000/svg" id="Layer_1" data-name="Layer 1" viewBox="0 0 355.5 83.12"><defs><style>.cls-1,.cls-2{fill:#fff;}.cls-1{fill-rule:evenodd;}</style></defs><path class="cls-1" d="M51.89,10A18.22,18.22,0,0,1,56,12.64a6.7,6.7,0,0,1,2.06,3.65,19.73,19.73,0,0,1,0,6.94c0,.28-.07.56-.11.87,1-1,2.41-6.18,1.65-9A9.62,9.62,0,0,1,61,16.26,26.23,26.23,0,0,1,62.88,19a10.86,10.86,0,0,1,1.41,4.89,5.29,5.29,0,0,1-.1,1.38,12.83,12.83,0,0,1-1.41,3.93,23.92,23.92,0,0,1-2.22,2.82,18.31,18.31,0,0,1-1.48,1.44,3.51,3.51,0,0,1-.4.27l.17.18c2.52-1.62,5.26-3,6.79-5.83l.1.06v.32c0,1.4-.13,2.79-.15,4.19a9.72,9.72,0,0,1-1.93,5.46,6.5,6.5,0,0,1-3.52,2.57c-1.56.5-3.15.93-4.73,1.39a.25.25,0,0,0-.18.18L60.9,42a3.3,3.3,0,0,1-1.36,1.88,29.16,29.16,0,0,1-7.16,4.26c-1.86.84-3.78,1.57-5.68,2.34a1.63,1.63,0,0,1-.23.07c.63-1.4,1.81-2.24,2.81-3.28l-1.65.64a38.23,38.23,0,0,0-5.81,3.29,4.2,4.2,0,0,0-.77.75.41.41,0,0,0-.08.32A6.52,6.52,0,0,0,41.84,55q1.36,2.14,2.69,4.32a1,1,0,0,1,.1.69c-.22.86-.49,1.7-.79,2.69a3.38,3.38,0,0,1-.62-.51c-.44-.56-.84-1.16-1.26-1.74a1.15,1.15,0,0,0-.33-.33c0,.12.07.24.12.36.67,1.81,1.36,3.62,2,5.44a.8.8,0,0,1,0,.61c-1.4,2.21-2.81,4.4-4.22,6.6a.85.85,0,0,0-.06.17l-.12-.07-1-10.61H38.2Q37.45,69,36.69,75.5H36.6L34.77,62.75h-.09c-.3,3.31-.6,6.63-.91,10-.1-.12-.17-.17-.21-.23-1.32-2.11-2.65-4.21-4-6.33a.71.71,0,0,1,0-.57c.72-1.87,1.46-3.74,2.2-5.61a.91.91,0,0,0,.08-.45c-.13.19-.25.38-.38.56-.49.65-1,1.29-1.49,1.92a2.08,2.08,0,0,1-.48.32c-.31-1-.6-2-.87-3,0-.1.08-.25.15-.36.53-.85,1.09-1.69,1.6-2.56s1.06-1.9,1.57-2.87a3.33,3.33,0,0,0,.14-2.16.42.42,0,0,0-.18-.24,32.82,32.82,0,0,0-7.76-4.17s-.06,0-.16,0a10.72,10.72,0,0,1,2.89,3.22l-.33-.09A57.57,57.57,0,0,1,17.14,46,14.75,14.75,0,0,1,13,42.87a8.23,8.23,0,0,1-.72-1.11L18.1,42s0-.07,0-.11l-1.79-.46a20.52,20.52,0,0,1-4.75-1.75,4.12,4.12,0,0,1-1.12-.87,10.9,10.9,0,0,1-2.1-3.34,9,9,0,0,1-.57-2.39c-.13-1.72-.14-3.45-.15-5.23,1.58,2.8,4.31,4.18,6.85,5.8l.17-.18c-.12-.08-.25-.14-.35-.22a19.31,19.31,0,0,1-3.6-4.06,8.23,8.23,0,0,1-1-2.08,13.73,13.73,0,0,1-.64-2.75A8.17,8.17,0,0,1,9.27,22a13.09,13.09,0,0,1,3.07-6,13.8,13.8,0,0,1,1.31-1.18,14.93,14.93,0,0,0,1.59,9.06l.12,0c-.13-1.05-.28-2.11-.37-3.17a12.63,12.63,0,0,1,.9-6.52,5.89,5.89,0,0,1,1.45-1.81A21.27,21.27,0,0,1,25.2,8.18c.84-.27,1.72-.37,2.61-.56,0,.1,0,.14,0,.15a16,16,0,0,0-5.17,4.58A12.07,12.07,0,0,0,20,18a15.9,15.9,0,0,0,.06,4.62A8.24,8.24,0,0,0,21.32,26a.51.51,0,0,1,0,.61,11.89,11.89,0,0,0-1.33,8,6.14,6.14,0,0,0,1.39,2.79c.58.69,1.22,1.33,1.83,2a1.06,1.06,0,0,0,.44.27c-3.93-3.42-4.26-7.54-2.46-12.09a14.6,14.6,0,0,0,.17,1.87,11.78,11.78,0,0,0,2.1,4.09,16.15,16.15,0,0,0,5.86,4.93,1.61,1.61,0,0,1,.76.92c.54,1.38,1.15,2.74,1.78,4.23,1-1.42,2.55-2.37,2.84-4.26a13.29,13.29,0,0,0-1.48,1.07A15.93,15.93,0,0,0,32,42c.07-.42.12-.74.2-1.06A6.9,6.9,0,0,1,38,35.52a5.91,5.91,0,0,0,1.5-.45,6.58,6.58,0,0,0,2.83-2.91,7.85,7.85,0,0,1-.52,3.31c-.36.74-.76,1.46-1.19,2.16a1.57,1.57,0,0,0-.27,1c.17,1.8.32,3.59.47,5.39l.06.32a7,7,0,0,0,.64-.89c.64-1.36,1.24-2.73,1.88-4.08a1.16,1.16,0,0,1,.42-.48,21.43,21.43,0,0,0,4.07-2.79,16.46,16.46,0,0,0,3.87-5.53,5.25,5.25,0,0,0,.36-2.72,10.75,10.75,0,0,1,.95,6.49c-.32,2.35-1.76,4-3.39,5.58.08,0,.11,0,.13,0,1.47-1.31,2.94-2.68,3.43-4.67A10.43,10.43,0,0,0,53,29.07c-.29-.77-.66-1.51-1-2.27a.56.56,0,0,1,0-.44,11.29,11.29,0,0,0,1.43-6.63,11.7,11.7,0,0,0-2.91-7.38,15.47,15.47,0,0,0-4.91-4.27,1.2,1.2,0,0,1-.12-.14A18.77,18.77,0,0,1,51.89,10Z"></path><polygon class="cls-1" points="347.86 48.88 347.86 46.15 335.55 46.15 335.55 42.32 347.2 42.32 347.2 39.59 335.55 39.59 335.55 36.59 347.86 36.59 347.86 33.88 332.08 33.88 332.08 48.88 347.86 48.88"></polygon><path class="cls-1" d="M325.06,48.88c3.51,0,4.84-1.49,4.84-3.67V43.13c0-2.18-1.33-3.65-4.84-3.65h-8.95c-1,0-1.38-.27-1.38-.91V37.5c0-.68.47-.92,1.38-.92h12.94v-2.7H316.11c-3.5,0-4.84,1.47-4.84,3.64v1c0,2.17,1.34,3.64,4.84,3.64h8.95c1,0,1.36.23,1.36.91v2.16c0,.71-.38.89-1.33.89H311.76v2.73Z"></path><polygon class="cls-1" points="291.69 48.88 291.69 37.95 307.25 48.88 308.95 48.88 308.95 33.88 305.91 33.88 305.91 44.15 291.67 33.88 288.68 33.88 288.68 48.88 291.69 48.88"></polygon><polygon class="cls-1" points="286.43 48.88 286.43 46.15 274.12 46.15 274.12 42.32 285.77 42.32 285.77 39.59 274.12 39.59 274.12 36.59 286.43 36.59 286.43 33.88 270.65 33.88 270.65 48.88 286.43 48.88"></polygon><polygon class="cls-1" points="256.98 48.88 256.98 42.93 268.42 42.93 268.42 40.23 256.98 40.23 256.98 36.59 269.29 36.59 269.29 33.88 253.51 33.88 253.51 48.88 256.98 48.88"></polygon><polygon class="cls-1" points="251.26 48.88 251.26 46.15 238.95 46.15 238.95 42.32 250.6 42.32 250.6 39.59 238.95 39.59 238.95 36.59 251.26 36.59 251.26 33.88 235.49 33.88 235.49 48.88 251.26 48.88"></polygon><path class="cls-1" d="M227.35,33.88h-14v15h14c4.33,0,5.65-1.47,5.65-4.28V38.31C233,35.35,231.68,33.88,227.35,33.88Zm2.18,10.67c0,1.33-.44,1.59-2.12,1.6H216.78V36.58h10.58c1.72,0,2.17.25,2.17,1.72Z"></path><polygon class="cls-1" points="188.64 48.88 194.69 43.23 200.78 48.88 205.26 48.88 196.9 41.23 205.22 33.88 200.76 33.88 194.69 39.55 188.62 33.88 184.12 33.88 192.51 41.38 184.12 48.88 188.64 48.88"></polygon><rect class="cls-2" x="179.05" y="33.88" width="3.47" height="15"></rect><polygon class="cls-1" points="159.06 48.88 159.06 37.95 174.63 48.88 176.33 48.88 176.33 33.88 173.29 33.88 173.29 44.15 159.03 33.88 156.04 33.88 156.04 48.88 159.06 48.88"></polygon><polygon class="cls-1" points="153.78 48.88 153.78 46.15 141.49 46.15 141.49 42.32 153.12 42.32 153.12 39.59 141.49 39.59 141.49 36.59 153.78 36.59 153.78 33.88 138.03 33.88 138.03 48.88 153.78 48.88"></polygon><path class="cls-1" d="M130.68,33.88H120.55c-3.49,0-4.8,1.47-4.8,3.62v7.76c0,2.15,1.31,3.62,4.8,3.62h10.13c3.49,0,4.8-1.47,4.8-3.62V37.5C135.48,35.35,134.17,33.88,130.68,33.88ZM132,45.28c0,.62-.46.88-1.33.88H120.55c-.87,0-1.34-.26-1.34-.88v-7.8c0-.6.47-.88,1.34-.88h10.13c.87,0,1.33.28,1.33.88Z"></path><polygon class="cls-1" points="98.39 48.88 98.39 42.32 109.78 42.32 109.78 48.88 113.26 48.88 113.26 33.88 109.78 33.88 109.78 39.59 98.39 39.59 98.39 33.88 94.93 33.88 94.93 48.88 98.39 48.88"></polygon><path class="cls-1" d="M88.26,33.88H75.72v15h3.46V43.45h9.08c3.49,0,4.8-1.47,4.8-3.63V37.5C93.06,35.35,91.75,33.88,88.26,33.88Zm1.37,5.95c0,.56-.32.88-1,.88H79.18V36.57h9.43a.92.92,0,0,1,1,1Z"></path></svg> 